<?xml version="1.0" standalone="no"?>
<!DOCTYPE svg PUBLIC "-//W3C//DTD SVG 20010904//EN"
 "http://www.w3.org/TR/2001/REC-SVG-20010904/DTD/svg10.dtd">
<svg version="1.0" xmlns="http://www.w3.org/2000/svg"
 width="3472.000000pt" height="3904.000000pt" viewBox="0 0 3472.000000 3904.000000"
 preserveAspectRatio="xMidYMid meet">

<g transform="translate(0.000000,3904.000000) scale(0.100000,-0.100000)"
fill="#000000" stroke="none">
<path d="M0 19520 l0 -19520 17360 0 17360 0 0 19520 0 19520 -17360 0 -17360
0 0 -19520z m17777 18450 c569 -25 821 -66 1239 -205 109 -37 397 -152 509
-205 33 -16 112 -52 175 -80 132 -59 319 -160 800 -433 58 -32 125 -70 150
-84 25 -14 115 -71 200 -126 148 -95 237 -152 380 -240 36 -23 109 -70 163
-106 54 -36 117 -78 140 -92 50 -31 261 -162 330 -204 26 -17 149 -94 272
-172 123 -78 281 -176 352 -219 70 -42 193 -119 273 -171 286 -186 386 -250
481 -306 53 -31 154 -97 225 -147 71 -49 185 -124 254 -166 69 -43 145 -92
170 -109 25 -17 95 -65 155 -105 61 -41 162 -115 225 -165 110 -86 161 -121
345 -238 91 -57 365 -203 470 -249 56 -25 389 -189 670 -330 22 -12 85 -47
140 -78 55 -32 152 -83 215 -114 63 -30 149 -76 190 -101 41 -25 98 -57 125
-71 28 -15 57 -32 65 -39 17 -15 99 -63 230 -135 47 -26 113 -63 148 -83 34
-21 88 -52 120 -70 31 -19 95 -58 142 -87 47 -29 99 -61 117 -71 122 -69 360
-214 608 -370 33 -20 107 -63 165 -94 58 -32 117 -66 132 -76 14 -11 29 -19
33 -19 4 0 60 -30 124 -67 109 -62 166 -97 351 -213 41 -26 136 -80 210 -120
145 -78 247 -140 377 -229 99 -67 179 -118 338 -213 66 -39 156 -95 200 -123
44 -28 106 -65 137 -83 32 -17 70 -40 85 -50 72 -50 299 -192 434 -272 32 -19
111 -73 175 -120 63 -47 177 -128 253 -180 307 -212 613 -475 802 -691 289
-328 499 -614 644 -879 29 -52 87 -158 130 -235 174 -313 212 -401 280 -659
19 -72 62 -219 96 -326 100 -316 157 -520 214 -765 51 -221 68 -505 80 -1390
4 -236 8 -464 11 -505 2 -41 3 -1931 2 -4200 -3 -4537 -1 -5608 8 -6570 10
-1124 -24 -1538 -177 -2153 -148 -595 -257 -925 -415 -1256 -58 -122 -92 -183
-237 -436 -46 -81 -193 -299 -246 -365 -169 -213 -399 -456 -571 -604 -401
-345 -936 -716 -1915 -1326 -310 -194 -413 -259 -767 -489 -48 -31 -122 -78
-165 -106 -43 -27 -168 -108 -278 -180 -110 -72 -267 -173 -350 -224 -82 -51
-226 -142 -320 -202 -93 -60 -201 -129 -240 -152 -38 -23 -88 -55 -110 -72
-22 -16 -117 -77 -210 -135 -94 -58 -192 -120 -220 -137 -27 -17 -104 -64
-170 -103 -133 -81 -163 -100 -250 -165 -33 -24 -65 -44 -71 -45 -7 0 -34 -18
-60 -40 -27 -22 -52 -40 -56 -40 -4 0 -27 -15 -51 -33 -24 -18 -66 -43 -94
-55 -29 -12 -55 -27 -58 -32 -9 -15 -188 -130 -280 -180 -44 -24 -93 -53 -110
-66 -16 -12 -47 -29 -67 -37 -21 -9 -55 -29 -75 -46 -21 -16 -85 -54 -143 -83
-112 -57 -153 -81 -185 -109 -11 -10 -61 -39 -112 -66 -98 -51 -257 -147 -413
-248 -52 -34 -122 -76 -154 -95 -32 -18 -73 -45 -90 -60 -28 -25 -277 -194
-387 -262 -24 -15 -93 -64 -154 -108 -60 -44 -155 -110 -210 -146 -55 -37
-125 -84 -155 -105 -114 -81 -309 -209 -418 -275 -62 -38 -165 -102 -230 -141
-64 -40 -139 -84 -167 -99 -27 -14 -57 -32 -65 -38 -8 -6 -35 -22 -60 -35 -25
-14 -65 -38 -88 -55 -46 -32 -109 -70 -177 -107 -22 -12 -123 -77 -225 -144
-102 -67 -224 -145 -272 -174 -48 -28 -90 -56 -93 -61 -7 -11 -215 -149 -282
-186 -127 -72 -190 -109 -218 -129 -16 -13 -93 -61 -170 -107 -77 -47 -189
-116 -250 -153 -60 -37 -166 -102 -235 -143 -69 -41 -138 -83 -153 -94 -15
-11 -58 -37 -95 -57 -37 -21 -87 -49 -112 -63 -140 -78 -511 -268 -525 -268
-2 0 -26 -12 -52 -28 -118 -68 -367 -169 -670 -272 -313 -107 -381 -122 -838
-190 -560 -83 -677 -94 -967 -87 -196 4 -253 9 -363 31 -71 14 -220 42 -330
62 -508 89 -547 101 -885 252 -233 105 -266 121 -380 182 -58 31 -184 99 -280
150 -189 101 -346 191 -680 393 -118 71 -243 145 -278 164 -34 19 -138 83
-230 142 -189 122 -403 249 -572 341 -63 34 -126 70 -140 79 -14 10 -72 44
-130 76 -111 61 -522 305 -650 385 -41 26 -118 72 -170 102 -52 30 -142 85
-200 120 -262 162 -730 456 -880 553 -238 153 -752 456 -1005 593 -189 102
-350 196 -560 327 -115 72 -237 146 -270 164 -33 19 -112 70 -175 115 -63 44
-266 181 -450 303 -184 122 -401 268 -481 324 -80 56 -216 145 -303 198 -86
53 -212 130 -279 172 -135 84 -459 277 -552 329 -33 18 -79 46 -102 62 -24 16
-136 84 -250 152 -115 68 -255 152 -313 186 -258 153 -342 202 -447 259 -62
34 -231 129 -375 212 -145 83 -339 195 -433 249 -93 54 -271 157 -395 230
-124 73 -282 165 -351 205 -246 140 -489 317 -648 470 -122 117 -317 353 -456
550 -54 77 -109 153 -122 168 -33 41 -29 50 15 31 83 -37 104 -28 54 23 -25
24 -53 36 -142 59 -44 11 -196 190 -251 294 l-38 71 25 25 c38 37 14 74 -40
60 -21 -5 -26 -11 -21 -26 4 -11 4 -20 0 -20 -10 0 -56 111 -50 121 4 5 0 9
-8 9 -26 0 -26 47 -1 71 l23 21 -6 -21 c-3 -12 -1 -21 6 -21 6 0 11 -7 11 -15
0 -22 30 -6 40 21 7 17 16 23 37 21 23 -2 27 2 25 17 -3 17 -2 18 12 3 19 -19
21 -37 4 -37 -7 0 -3 -6 8 -14 11 -8 33 -40 49 -73 16 -32 35 -64 42 -71 31
-32 10 -45 -47 -31 -25 7 -24 -38 1 -52 17 -9 24 -9 27 0 2 7 13 4 29 -9 19
-15 29 -17 39 -9 18 15 37 1 31 -22 -3 -10 -2 -18 2 -17 17 2 31 -3 29 -11 -2
-5 1 -11 6 -12 28 -11 1 93 -42 161 -12 19 -24 53 -28 75 -10 71 1 268 33 575
17 162 36 347 42 410 38 421 57 577 97 820 37 221 57 326 80 406 8 28 14 59
14 69 0 23 65 241 115 385 8 25 27 86 41 135 134 461 246 775 361 1010 108
221 374 658 567 935 182 260 520 710 623 829 181 209 516 476 848 676 37 22
93 57 126 78 78 50 105 60 130 47 22 -12 22 -5 9 -222 -16 -266 10 -535 77
-798 13 -52 25 -102 27 -110 1 -8 6 -35 11 -60 4 -25 16 -66 25 -91 10 -25 28
-86 39 -135 12 -49 25 -98 30 -109 23 -51 71 -209 91 -295 12 -52 30 -117 40
-145 10 -27 37 -104 59 -170 22 -66 49 -142 60 -170 11 -27 30 -84 42 -125 12
-41 29 -86 39 -100 19 -28 60 -117 60 -132 0 -14 53 -145 98 -240 39 -85 44
-97 92 -228 15 -41 34 -88 43 -105 9 -16 32 -64 52 -105 45 -95 114 -212 142
-242 12 -13 39 -48 60 -79 21 -31 55 -76 75 -100 20 -24 73 -89 119 -144 140
-171 349 -396 524 -566 327 -317 389 -375 490 -455 61 -47 131 -105 156 -128
118 -107 235 -201 359 -287 74 -51 154 -108 177 -125 23 -17 152 -98 286 -178
135 -81 292 -180 349 -221 188 -134 292 -205 428 -293 74 -48 187 -123 250
-168 63 -45 171 -114 240 -153 69 -40 152 -90 185 -110 156 -98 358 -209 675
-371 348 -179 426 -220 645 -345 66 -37 201 -111 300 -162 99 -52 200 -106
225 -121 95 -53 208 -116 280 -155 113 -60 211 -118 245 -142 17 -13 75 -46
130 -76 55 -29 128 -70 162 -91 94 -56 204 -110 396 -192 95 -41 231 -101 303
-134 72 -34 153 -70 180 -80 27 -11 84 -36 127 -56 42 -20 79 -36 82 -36 2 0
69 -27 147 -61 79 -33 213 -90 298 -126 85 -36 205 -87 265 -113 610 -264
1384 -519 2015 -664 107 -25 283 -66 390 -91 406 -95 936 -188 1235 -216 131
-12 443 -5 585 13 47 5 99 12 115 13 82 9 149 18 245 35 58 10 125 21 150 24
59 8 271 59 440 106 74 21 234 61 355 90 360 85 721 186 1050 292 600 194 858
290 1149 427 55 26 139 65 186 87 181 83 449 219 541 274 52 32 154 89 225
127 71 38 147 81 169 95 22 14 94 55 160 93 66 37 197 118 291 180 93 62 181
118 195 125 23 12 323 212 454 303 138 95 364 259 416 301 30 25 119 94 196
153 217 167 260 201 368 298 56 50 168 148 251 219 191 167 373 350 593 601
96 110 191 217 210 237 18 21 41 48 49 60 9 13 70 90 137 171 179 221 186 231
398 608 97 172 362 697 447 884 29 64 103 214 140 285 51 97 173 390 217 520
8 25 33 95 56 155 44 122 123 343 199 564 67 196 139 482 214 851 14 69 29
141 35 161 19 74 41 238 49 379 14 217 48 645 66 815 21 201 24 571 5 604 -9
16 -16 85 -22 205 -11 234 -65 703 -89 784 -15 49 -18 80 -13 140 4 63 0 106
-27 237 -18 88 -38 203 -46 255 -18 132 -50 299 -63 335 -6 17 -22 112 -36
212 -30 214 -72 428 -119 608 -18 72 -49 191 -69 265 -43 166 -134 566 -181
795 -35 168 -136 592 -176 732 -82 295 -381 1118 -535 1473 -35 80 -115 267
-179 417 -264 621 -705 1436 -984 1823 -41 58 -132 177 -202 265 -69 88 -157
200 -194 248 -134 174 -367 436 -637 718 -151 157 -346 361 -433 453 -105 111
-255 251 -440 411 -155 133 -328 290 -385 349 -57 58 -108 106 -113 106 -4 0
-26 11 -48 25 -22 14 -43 25 -46 25 -12 0 -207 144 -334 246 -69 55 -170 130
-225 166 -265 172 -401 258 -650 408 -148 90 -362 221 -475 291 -935 581
-1122 692 -1560 934 -367 202 -624 350 -945 543 -265 160 -409 244 -679 397
-100 56 -273 155 -386 220 -112 64 -238 136 -280 158 -206 111 -352 194 -482
275 -79 49 -204 123 -278 164 -74 42 -247 140 -385 218 -370 211 -1048 547
-1410 700 -11 5 -51 22 -90 39 -312 137 -572 228 -981 346 -346 100 -570 173
-809 265 -183 70 -374 130 -490 156 -60 13 -159 35 -220 49 -60 14 -186 42
-280 61 -93 19 -190 40 -215 48 -120 38 -263 60 -535 81 -104 8 -275 21 -380
30 -170 14 -407 19 -1214 29 -214 2 -245 4 -256 19 -16 22 -85 24 -85 2 0 -18
-8 -18 -65 -4 -36 9 -50 8 -74 -4 -24 -12 -37 -13 -59 -5 -20 8 -48 8 -90 1
-37 -6 -65 -6 -71 0 -5 5 -24 4 -46 -2 -22 -6 -77 -8 -129 -4 -88 5 -92 5
-116 -20 -22 -22 -33 -25 -78 -23 -89 5 -87 9 75 123 44 32 157 126 250 208
92 83 211 184 263 225 52 41 158 126 235 188 248 200 327 260 520 391 351 239
872 581 1085 711 304 186 493 301 645 392 168 101 289 177 464 293 196 130
375 242 501 315 69 40 136 80 150 90 28 19 161 94 285 160 44 24 125 68 180
98 504 277 1133 548 1585 682 420 124 1078 180 1767 150z m-7847 -4020 c0 -5
-5 -10 -11 -10 -5 0 -7 5 -4 10 3 6 8 10 11 10 2 0 4 -4 4 -10z m-253 -18 c16
-10 -11 -52 -33 -52 -8 0 -17 -7 -20 -15 -7 -17 -44 -21 -44 -4 0 5 13 15 30
20 16 6 27 15 24 20 -16 26 16 48 43 31z m-1007 -657 c-7 -8 -19 -15 -26 -15
-8 0 -35 -16 -61 -36 -48 -37 -86 -56 -113 -58 -21 -1 -100 -45 -100 -55 0 -5
-27 -21 -60 -37 -33 -15 -60 -32 -60 -36 0 -4 -10 -7 -22 -5 -15 1 -22 -3 -20
-11 1 -8 -2 -10 -8 -7 -6 4 -22 -5 -36 -20 -14 -15 -31 -24 -39 -21 -8 3 -20
-3 -27 -12 -7 -10 -29 -29 -48 -42 -19 -13 -37 -27 -40 -30 -3 -4 -20 -15 -37
-25 -18 -11 -33 -26 -34 -35 0 -10 -2 -11 -6 -3 -3 10 -7 10 -18 0 -7 -7 -11
-15 -8 -19 2 -5 -5 -8 -15 -8 -19 0 -37 -24 -34 -46 1 -6 -15 -16 -35 -22 -31
-9 -39 -9 -46 3 -16 29 -70 -11 -65 -47 2 -17 9 -22 26 -20 12 2 22 -2 22 -7
0 -6 9 -11 19 -11 11 0 23 -4 26 -10 8 -14 58 -13 90 2 19 9 31 8 49 -2 15 -7
36 -10 53 -6 55 13 138 13 165 -1 35 -17 43 -17 28 2 -14 17 -7 45 13 45 9 0
12 -9 9 -29 -4 -27 -2 -28 35 -28 21 0 52 -4 68 -8 55 -15 189 -17 355 -6 91
6 242 15 335 21 94 6 215 15 270 20 134 14 688 91 698 97 5 3 88 11 185 18
595 44 1589 39 2177 -10 94 -8 208 -17 255 -21 46 -3 88 -8 91 -10 4 -2 165
-13 359 -24 194 -11 355 -22 359 -24 3 -3 78 -12 166 -20 212 -22 424 -62 547
-105 189 -66 624 -250 863 -366 99 -48 241 -114 315 -147 341 -150 635 -329
953 -578 43 -34 102 -73 132 -86 81 -37 134 -106 123 -161 -1 -10 -20 -26 -41
-37 -39 -19 -313 -76 -672 -141 -222 -40 -410 -89 -742 -194 -421 -134 -554
-192 -1148 -499 -104 -54 -237 -122 -295 -152 -58 -30 -190 -103 -293 -162
-104 -60 -230 -129 -280 -154 -51 -26 -135 -71 -187 -102 -161 -94 -433 -254
-480 -283 -25 -15 -88 -52 -142 -81 -98 -54 -323 -198 -786 -502 -141 -93
-329 -216 -417 -274 -88 -58 -220 -150 -294 -206 -73 -56 -155 -117 -182 -136
-278 -201 -369 -268 -525 -387 -99 -76 -234 -180 -300 -232 -65 -52 -162 -129
-215 -170 -52 -42 -171 -134 -262 -205 -156 -120 -311 -257 -602 -536 -66 -63
-167 -155 -225 -204 -187 -160 -415 -400 -581 -611 -38 -49 -105 -134 -147
-187 -534 -675 -617 -787 -825 -1111 -43 -67 -95 -144 -116 -172 -100 -135
-152 -211 -227 -340 -45 -77 -99 -167 -120 -200 -101 -160 -237 -394 -303
-520 -41 -77 -100 -186 -132 -243 -33 -57 -59 -105 -59 -107 0 -3 -19 -37 -43
-77 -50 -85 -111 -209 -249 -508 -198 -429 -304 -708 -400 -1054 -23 -83 -84
-275 -136 -426 -51 -151 -149 -437 -217 -635 -152 -447 -163 -476 -339 -875
-79 -179 -178 -408 -221 -510 -43 -102 -110 -257 -150 -345 -40 -88 -125 -284
-188 -435 -63 -151 -149 -351 -190 -445 -113 -256 -135 -309 -187 -450 -116
-314 -154 -414 -243 -635 -135 -336 -201 -539 -366 -1131 -33 -119 -66 -230
-72 -245 -18 -50 -167 -646 -198 -795 -17 -79 -42 -234 -56 -344 -22 -171 -42
-310 -95 -665 -5 -36 -12 -90 -15 -120 -4 -30 -12 -84 -20 -120 -29 -137 -45
-250 -56 -380 -13 -169 -18 -624 -8 -722 22 -196 40 -345 74 -597 4 -23 11
-54 16 -68 5 -14 7 -28 5 -31 -3 -2 -1 -13 5 -23 7 -14 6 -19 -3 -19 -10 0
-10 -2 -1 -8 19 -12 24 -62 7 -69 -9 -3 -12 -12 -8 -25 3 -10 1 -24 -4 -31 -7
-8 -4 -23 9 -47 11 -19 19 -31 19 -27 0 4 9 3 21 -3 11 -6 19 -18 17 -27 -3
-15 -17 -21 -64 -26 -15 -2 -20 -9 -21 -34 -1 -27 3 -33 20 -33 21 -1 20 -2
-5 -23 -31 -26 -36 -52 -12 -65 11 -6 13 -11 5 -16 -14 -9 -15 -43 -1 -48 5
-2 12 -18 14 -36 3 -28 0 -35 -21 -43 -32 -12 -33 -12 -33 6 0 8 -7 15 -14 15
-14 0 -66 58 -66 73 0 3 -25 43 -54 88 -30 45 -67 112 -81 148 -38 93 -40 96
-64 99 -11 2 -21 9 -21 16 0 12 -38 97 -80 179 -11 22 -20 45 -20 51 0 7 -9
21 -20 31 -11 10 -20 22 -20 28 0 5 -18 46 -41 91 -22 44 -49 108 -60 141 -11
33 -31 76 -43 95 -23 35 -58 129 -111 305 -15 50 -54 169 -85 265 -32 96 -67
207 -79 245 -11 39 -34 115 -51 170 -16 54 -30 121 -30 148 0 26 -4 56 -10 66
-5 10 -16 81 -24 157 -12 112 -16 379 -21 1364 -3 674 -7 1243 -9 1265 -2 22
-6 123 -10 225 -3 102 -9 230 -12 285 -5 101 -25 646 -46 1250 -8 229 -11
1440 -11 3960 1 4577 0 4434 37 4730 22 174 35 224 161 610 62 193 143 449
179 570 36 121 75 247 87 280 63 182 103 281 152 377 30 59 62 126 71 148 9
23 42 87 73 143 31 56 75 136 97 177 43 77 315 485 415 620 146 199 402 489
628 711 166 164 381 362 442 407 20 14 75 58 122 97 161 131 500 362 789 537
41 25 256 164 477 309 221 145 444 291 495 323 51 33 145 92 208 133 275 178
649 403 825 498 134 72 605 306 723 359 110 50 375 182 642 322 214 112 556
284 564 284 4 0 23 11 43 25 39 26 55 26 33 0z m-860 -592 c0 -25 -1 -26 -16
-11 -9 9 -13 21 -10 27 13 20 26 11 26 -16z m9935 -5143 c77 -6 169 -17 205
-26 219 -52 451 -192 638 -384 196 -202 332 -468 361 -709 13 -102 9 -144 -20
-263 -140 -566 -298 -772 -814 -1071 -135 -78 -257 -116 -472 -147 -175 -25
-362 4 -492 77 -153 85 -380 243 -481 335 -300 274 -381 368 -474 548 -84 163
-96 206 -97 362 0 180 24 284 107 448 130 259 423 572 642 684 18 9 92 39 165
65 224 82 418 103 732 81z m2716 -2795 c162 -24 239 -57 355 -150 145 -115
322 -345 376 -489 40 -103 63 -269 83 -601 13 -202 12 -727 -2 -990 -10 -198
-15 -667 -18 -1755 -3 -1494 -13 -1984 -40 -2128 -15 -76 -15 -77 -96 -158
l-81 -81 -206 -19 c-166 -15 -276 -18 -557 -15 -192 1 -395 7 -450 13 -55 5
-126 12 -157 15 -32 3 -58 8 -58 12 0 3 -5 40 -11 81 -6 41 -12 93 -14 115
-24 281 -29 404 -40 1050 -8 461 -24 1136 -35 1480 -16 515 -35 1731 -34 2220
1 462 16 875 35 950 20 77 239 265 405 348 216 107 348 132 545 102z m-5036
-121 c70 -18 411 -184 503 -243 34 -22 79 -49 100 -60 20 -11 55 -39 78 -63
182 -193 220 -348 218 -893 0 -138 -6 -297 -13 -355 -15 -125 -58 -319 -76
-340 -6 -8 -17 -55 -24 -105 -7 -49 -17 -121 -23 -159 -8 -53 -7 -70 2 -76 10
-6 11 -24 6 -67 -36 -300 -34 -279 -61 -773 -19 -349 -43 -689 -70 -1010 -8
-96 -17 -202 -20 -235 -3 -33 -9 -96 -15 -140 -21 -178 -52 -418 -71 -560 -11
-82 -22 -169 -25 -192 -3 -24 -10 -45 -15 -49 -6 -3 -7 -24 -4 -47 4 -26 1
-58 -8 -83 -7 -23 -12 -56 -9 -73 2 -16 -3 -63 -11 -103 -43 -204 -72 -391
-81 -526 -6 -82 -21 -127 -50 -151 -8 -7 -162 -41 -343 -77 -180 -35 -366 -73
-413 -84 -178 -40 -354 -67 -498 -76 -83 -4 -84 -4 -112 26 -95 102 -136 410
-160 1200 -11 346 -40 832 -62 1010 -8 67 -11 425 -10 1215 2 1235 7 1657 22
1815 5 58 14 159 20 225 11 135 47 287 91 383 38 85 141 251 199 325 60 74
182 167 291 222 122 62 272 124 321 135 61 13 252 4 323 -16z m2937 -424 c4
-25 12 -108 18 -185 16 -229 40 -515 50 -585 5 -36 14 -114 20 -175 6 -60 17
-168 25 -240 15 -134 36 -389 55 -650 6 -82 15 -211 20 -285 8 -120 19 -319
35 -655 3 -60 8 -488 11 -950 6 -841 -8 -1504 -36 -1783 -14 -134 -52 -287
-79 -316 -32 -34 -141 -84 -218 -100 -134 -29 -354 -38 -582 -25 -209 11 -330
36 -421 86 -36 20 -97 53 -136 74 -40 22 -93 62 -121 92 l-51 53 -6 90 c-15
228 -16 627 -2 1432 26 1489 35 1926 47 2242 6 168 12 346 14 395 5 177 13
303 29 480 9 99 18 209 21 245 6 77 20 186 43 325 9 55 18 127 21 160 l6 60
38 6 c21 3 48 10 60 16 12 6 69 20 127 31 109 22 232 49 385 84 50 12 107 20
128 19 22 -1 45 3 52 9 8 7 24 13 37 15 114 16 176 28 253 50 49 15 92 28 94
31 3 3 17 4 30 2 22 -3 27 -10 33 -48z m-6071 -1501 c162 -21 338 -73 472
-140 90 -45 260 -175 348 -266 146 -150 273 -384 339 -624 58 -215 65 -267 65
-519 0 -253 -6 -292 -75 -463 -45 -112 -191 -334 -299 -455 -76 -85 -385 -348
-487 -414 -38 -25 -103 -64 -144 -87 -41 -24 -106 -63 -145 -88 -90 -57 -219
-119 -269 -128 -33 -5 -50 -1 -104 27 -36 18 -88 54 -114 80 -27 27 -56 48
-65 48 -23 0 -327 158 -381 198 -116 87 -379 342 -481 467 -57 69 -102 159
-150 298 -51 149 -69 241 -75 390 -5 136 9 411 25 477 6 25 15 68 19 97 14 81
131 323 225 463 126 189 202 273 365 401 172 135 349 216 520 239 87 12 319
11 411 -1z m11186 -45 c176 -26 298 -72 492 -185 177 -103 285 -196 382 -330
174 -237 230 -369 288 -669 80 -421 18 -680 -266 -1113 -144 -219 -250 -339
-421 -477 -166 -134 -465 -255 -644 -261 -132 -5 -293 28 -420 86 -331 152
-560 369 -719 682 -48 93 -112 275 -139 393 -7 30 -29 102 -50 160 -21 58 -45
133 -54 168 -18 73 -21 216 -5 312 10 62 67 221 96 266 7 11 24 48 37 81 70
180 310 498 501 663 140 122 310 211 445 233 69 12 377 6 477 -9z m4337 -3912
c7 -93 -8 -600 -24 -822 -5 -74 -18 -198 -29 -275 -10 -77 -26 -196 -36 -265
-9 -69 -22 -163 -30 -210 -8 -47 -17 -112 -20 -145 -6 -57 -29 -238 -75 -575
-27 -199 -100 -565 -146 -734 -66 -243 -218 -706 -269 -821 -89 -202 -120
-268 -155 -335 -10 -19 -98 -195 -194 -390 -97 -195 -196 -389 -221 -430 -25
-41 -56 -95 -68 -120 -12 -25 -54 -99 -93 -165 -39 -66 -86 -147 -104 -180
-50 -92 -136 -219 -181 -270 -15 -16 -53 -68 -84 -115 -31 -47 -67 -96 -80
-110 -13 -14 -49 -59 -82 -101 -32 -42 -94 -119 -138 -170 -44 -52 -91 -107
-104 -124 -32 -39 -367 -373 -546 -544 -130 -124 -289 -263 -425 -371 -31 -25
-74 -62 -96 -82 -39 -36 -75 -63 -209 -156 -38 -26 -113 -79 -165 -118 -184
-136 -470 -323 -494 -324 -6 0 -30 -17 -56 -39 -25 -21 -68 -50 -96 -64 -28
-14 -66 -38 -83 -53 -36 -30 -216 -124 -238 -124 -8 0 -40 -13 -71 -30 -31
-16 -91 -43 -132 -60 -41 -16 -124 -54 -185 -84 -298 -148 -413 -199 -521
-235 -66 -21 -130 -43 -144 -49 -14 -6 -90 -31 -170 -57 -80 -26 -154 -50
-165 -55 -19 -8 -50 -19 -210 -77 -38 -14 -95 -36 -125 -50 -30 -14 -95 -36
-145 -49 -49 -14 -117 -34 -149 -45 -33 -11 -100 -27 -150 -35 -50 -8 -116
-18 -146 -24 -30 -5 -95 -14 -145 -20 -49 -6 -121 -15 -160 -20 -194 -28 -448
-60 -510 -64 -500 -38 -1215 -55 -1520 -37 -565 33 -723 48 -900 82 -55 10
-161 28 -235 39 -141 20 -254 43 -330 65 -25 8 -99 28 -165 45 -66 17 -217 60
-335 96 -118 35 -339 95 -490 133 -469 118 -542 140 -795 239 -364 142 -702
290 -1030 452 -165 81 -329 162 -365 178 -81 37 -343 163 -430 206 -249 124
-776 395 -830 426 -36 21 -81 45 -100 53 -19 8 -105 48 -190 89 -85 41 -173
83 -195 93 -22 10 -161 77 -310 150 -258 126 -474 227 -745 348 -69 31 -201
90 -295 132 -93 42 -222 96 -285 121 -63 25 -173 68 -245 96 -71 28 -224 94
-340 148 -266 123 -359 163 -570 246 -187 73 -447 186 -484 211 -14 9 -105 58
-203 109 -172 90 -207 110 -363 212 -113 74 -342 313 -492 514 -72 95 -157
214 -190 263 -33 50 -80 120 -105 156 -25 36 -56 99 -70 140 -49 140 -99 307
-129 430 -30 122 -118 450 -205 766 -25 90 -57 191 -71 225 -49 123 -74 205
-112 368 -74 316 -113 601 -115 849 l-1 153 33 28 c19 15 59 35 90 44 73 20
294 50 547 76 110 10 299 29 420 41 484 49 887 25 1525 -92 163 -29 254 -50
660 -148 113 -27 232 -54 265 -61 430 -85 876 -203 1305 -347 402 -134 673
-244 1078 -439 73 -35 135 -64 137 -64 4 0 146 -68 528 -254 109 -53 200 -96
202 -96 2 0 52 -23 112 -51 59 -28 146 -68 193 -89 180 -80 967 -489 1210
-629 107 -61 238 -132 290 -158 90 -43 212 -107 500 -263 396 -214 510 -277
746 -411 224 -127 568 -303 684 -349 19 -8 87 -40 150 -71 157 -78 194 -94
515 -223 741 -299 929 -367 1301 -471 813 -227 1287 -299 1959 -298 368 1 543
15 870 73 276 49 364 69 555 121 80 22 219 60 310 85 212 57 472 143 625 206
66 28 156 65 200 83 470 193 925 441 1225 667 14 10 61 45 105 77 146 105 349
259 425 322 188 153 499 458 634 619 204 246 250 302 324 395 43 55 121 165
172 245 52 80 126 192 166 250 150 221 267 454 382 766 159 429 167 453 212
654 28 125 103 581 155 934 24 169 50 315 57 323 21 25 35 -9 42 -105z"/>
<path d="M7668 32663 c7 -3 16 -2 19 1 4 3 -2 6 -13 5 -11 0 -14 -3 -6 -6z"/>
<path d="M2540 11180 c0 -11 4 -20 9 -20 5 0 7 9 4 20 -3 11 -7 20 -9 20 -2 0
-4 -9 -4 -20z"/>
</g>
</svg>
